<?xml version="1.0" encoding="UTF-8" standalone="no"?>
<!-- Created with Inkscape (http://www.inkscape.org/) -->

<svg
   width="40"
   height="40"
   viewBox="0 0 40 40"
   version="1.1"
   id="svg5"
   sodipodi:docname="flower40.svg"
   inkscape:version="1.2.2 (732a01da63, 2022-12-09)"
   xmlns:inkscape="http://www.inkscape.org/namespaces/inkscape"
   xmlns:sodipodi="http://sodipodi.sourceforge.net/DTD/sodipodi-0.dtd"
   xmlns="http://www.w3.org/2000/svg"
   xmlns:svg="http://www.w3.org/2000/svg">
  <sodipodi:namedview
     id="namedview8"
     pagecolor="#505050"
     bordercolor="#eeeeee"
     borderopacity="1"
     inkscape:showpageshadow="0"
     inkscape:pageopacity="0"
     inkscape:pagecheckerboard="0"
     inkscape:deskcolor="#505050"
     showgrid="false"
     inkscape:zoom="12.402653"
     inkscape:cx="11.046024"
     inkscape:cy="25.800932"
     inkscape:window-width="1920"
     inkscape:window-height="1057"
     inkscape:window-x="-8"
     inkscape:window-y="-8"
     inkscape:window-maximized="1"
     inkscape:current-layer="layer1" />
  <defs
     id="defs2">
    <rect
       x="172.79379"
       y="293.10947"
       width="1770.9773"
       height="1104.6681"
       id="rect956" />
  </defs>
  <g
     id="layer1">
    <path
       style="color:#000000;font-size:666.667px;white-space:pre;fill:#ffffff;stroke:none;stroke-width:0.0849384;stroke-linecap:butt;stroke-opacity:1;-inkscape-stroke:none;fill-opacity:1"
       d="m 34.277071,23.429625 q 2.211941,1.608683 2.211941,4.02171 0.201085,1.206513 -0.402171,1.809769 -1.005427,2.010855 -3.619539,2.010855 -1.407599,0 -2.413026,-0.603256 -1.608685,-1.005428 -3.217369,-3.418455 -1.005427,-1.608683 -2.614111,-3.217367 -1.608684,-1.80977 -3.016283,-2.614112 l -0.603256,-0.402171 v 0.603257 q 0,1.407598 0.603256,3.619539 0.804342,3.016282 1.407599,3.820625 1.608684,3.016282 1.608684,5.027137 0,1.608684 -1.206513,3.016283 Q 21.80977,38.511038 20,38.511038 q -1.80977,0 -3.016283,-1.407599 -1.206512,-1.407599 -1.206512,-3.016283 0,-2.010855 1.407598,-4.624966 0.804342,-1.407599 1.407599,-3.820625 0.804341,-2.413027 0.804341,-4.02171 v -0.603257 l -0.603256,0.402171 q -1.206513,1.005428 -3.016282,2.614112 -1.608685,1.608684 -2.413027,3.016282 -1.608683,2.614112 -3.217367,3.418454 -1.2065139,0.804342 -2.6141126,0.804342 -2.4130255,0 -3.6195388,-2.010855 -0.6032563,-1.005428 -0.4021713,-2.413025 0.4021713,-2.211942 2.2119407,-3.418454 1.8097694,-1.005428 4.826052,-1.206514 1.206514,0 4.021711,-0.603256 2.413025,-0.402172 3.619538,-1.206513 L 18.793487,20.011171 18.19023,19.609 q -1.206513,-0.603256 -3.418453,-1.206513 -2.413026,-0.603257 -4.222796,-0.603257 -3.0162826,0 -5.0271376,-1.407598 -1.8097695,-1.206514 -2.0108551,-3.418454 0,-1.206514 0.4021713,-2.21194 1.2065133,-2.0108554 3.6195388,-2.0108554 1.4075987,0 2.4130265,0.6032565 1.8097701,1.0054279 3.4184531,3.6195389 1.005427,1.407599 2.413027,3.016283 1.809769,2.010855 3.016282,2.614111 l 0.603256,0.402172 v -0.804343 q 0,-1.407599 -0.603256,-3.418453 -0.402171,-1.608684 -1.407599,-3.820625 -1.608683,-3.2173676 -1.608683,-5.0271372 0,-1.6086838 1.206512,-3.0162827 1.407599,-1.6086838 3.418454,-1.4075989 1.608684,0.2010857 2.815197,1.6086845 1.005428,1.2065133 1.005428,2.8151971 0,2.0108552 -1.407599,4.6249662 -0.804342,1.608684 -1.407599,3.619538 -0.804341,2.815199 -0.804341,4.021711 v 0.804343 l 0.603256,-0.402172 q 1.407599,-0.804342 3.016283,-2.614111 1.608684,-1.809771 2.413027,-3.016283 1.608683,-2.614111 3.418453,-3.6195389 1.206513,-0.6032565 2.413026,-0.6032565 2.413025,0 3.619539,2.0108554 0.603256,1.005426 0.402171,2.21194 -0.201086,2.21194 -2.010855,3.418454 -2.211941,1.407598 -5.027138,1.407598 -1.407598,0.201086 -3.820624,0.603257 -2.614112,0.804341 -3.820625,1.206513 l -0.603257,0.402171 0.603257,0.402171 q 1.206513,0.804341 3.820625,1.206513 2.413026,0.603256 3.820624,0.603256 3.217368,0.201086 4.826052,1.206514 z"
       id="path306" />
  </g>
</svg>
